<svg width="18" height="18" fill="none" xmlns="http://www.w3.org/2000/svg"><rect width="18" height="18" rx="4" fill="#D9AE81"/><g clip-path="url(#clip0)"><path d="M8 12a.587.587 0 01-.414-.155l-2.43-2.431c-.208-.207-.208-.62 0-.828a.587.587 0 01.413-.155.59.59 0 01.414.155L8 10.603l4.448-4.448A.587.587 0 0112.862 6a.59.59 0 01.414.155.587.587 0 01.155.414.59.59 0 01-.155.414l-4.862 4.862A.587.587 0 018 12z" fill="#fff"/></g><defs><clipPath id="clip0"><path fill="#fff" transform="translate(5 6)" d="M0 0h8.431v6H0z"/></clipPath></defs></svg>