<svg width="42" height="42" fill="none" xmlns="http://www.w3.org/2000/svg"><rect width="42" height="42" rx="4" fill="#E2E7FC"/><path d="M19.35 23.613l1.65-1.65 4.262 4.262-1.65 1.65-4.262-4.262zm3.3 5.087l-4.262-4.262-1.65 1.65 4.262 4.4 1.65-1.788zm1.788-5.087L28.7 19.35 30.35 21l-4.263 4.262-1.65-1.65zm7.562-1.1l-.688-.688-1.65 1.65L32 25.812v-3.3zm-17.875 1.1l4.262-4.263 1.65 1.65-4.262 4.262-1.65-1.65zM29.663 13.3L32 15.637v-4.675L29.663 13.3zM11.65 21l4.262-4.262 1.65 1.65L13.3 22.65 11.65 21zm10.312 0l4.263-4.262 1.65 1.65-4.262 4.262-1.65-1.65zm2.476-7.7l1.65 1.65 4.95-4.95H27.6l-3.163 3.3zM32 17.425l-3.3-3.3-1.65 1.65 4.95 4.95v-3.3zM19.35 13.3l4.262 4.262 1.65-1.65-4.262-4.4-1.65 1.788zm-2.613 2.612l1.65-1.787 4.263 4.262-1.65 1.65-4.262-4.124zM27.876 28.7l-1.65-1.65-4.95 4.95h3.3l3.3-3.3zm-7.837 2.613l-1.65-1.65L16.05 32h3.3l.688-.688zM17.562 28.7l-1.65-1.65-4.95 4.95H14.4l3.162-3.3zM28.7 24.438l-1.65 1.65 4.95 4.95V27.6l-3.3-3.163zM10 26.363v4.675l2.338-2.338L10 26.363zm18.7 3.3L26.363 32h4.675L28.7 29.663zm-6.738-18.976l1.65 1.65L25.95 10h-3.438l-.55.688zm-8.662 1.65L15.637 10h-4.675l2.338 2.338zm0 15.538l1.65-1.65-4.95-4.95v3.3l3.3 3.3zm.825-14.575l1.65 1.65 4.95-4.95h-3.3l-3.3 3.3zm-.825 4.262l1.65-1.65-4.95-4.95V14.4l3.3 3.162zm-2.613 2.476l1.65-1.65L10 16.05v3.3l.688.688z" fill="#7C8DC8"/></svg>