<svg width="18" height="16" fill="none" xmlns="http://www.w3.org/2000/svg"><g clip-path="url(#clip0)"><path d="M16.9 6.1L9.5.3c-.3-.2-.6-.3-1-.3-.3 0-.6.1-.9.3L.2 6.1c-.1.1-.2.3-.2.4v8c0 .8.7 1.5 1.5 1.5h14.1c.8 0 1.5-.7 1.5-1.5v-8c0-.1-.1-.3-.2-.4zm-8.7-5c.1 0 .2-.1.3-.1.1 0 .2.1.3.1l6.9 5.4-6.9 5.4c-.1 0-.2.1-.3.1-.1 0-.2-.1-.3-.1L1.3 6.5l6.9-5.4zm7.9 13.4c0 .3-.2.5-.5.5H1.5c-.3 0-.5-.2-.5-.5v-7l6.6 5.2c.3.2.6.3.9.3.3 0 .7-.1.9-.3L16 7.5v7h.1zM9.7 9.8c.3-.1.4-.4.3-.6-.1-.3-.4-.4-.6-.3-.3.1-.6.1-.9.1C7.2 9 6 7.9 6 6.5S7.2 4 8.5 4 11 5.1 11 6.5c0 .3-.2.5-.5.5-.2 0-.5-.2-.5-.5C10 5.7 9.4 5 8.5 5S7 5.7 7 6.5 7.7 8 8.5 8c.4 0 .7-.1 1-.4.3.2.6.4 1 .4.9 0 1.5-.7 1.5-1.5C12 3.7 9.6 3 8.5 3 6.6 3 5 4.6 5 6.5S6.6 10 8.5 10c.4 0 .8-.1 1.2-.2zM8.5 7c-.2 0-.5-.2-.5-.5s.3-.5.5-.5c.3 0 .5.2.5.5s-.2.5-.5.5z" fill="#E0400D"/></g><defs><clipPath id="clip0"><path fill="#fff" d="M0 0h17.1v16H0z"/></clipPath></defs></svg>