<svg width="20" height="18" fill="none" xmlns="http://www.w3.org/2000/svg"><path d="M9.946 17.297c-.108 0-.216 0-.324-.108-.108-.108-2.487-1.405-4.757-3.46-1.406-1.188-2.487-2.378-3.351-3.567C.54 8.65 0 7.243 0 5.946 0 4.324.54 2.811 1.622 1.73 2.595.649 4 0 5.405 0c1.838 0 3.568 1.081 4.54 2.703C11.028 1.08 12.65 0 14.596 0 16 0 17.297.54 18.27 1.622 19.351 2.702 20 4.324 20 5.946c0 1.297-.54 2.81-1.622 4.324-.756 1.19-1.946 2.379-3.351 3.568-2.378 2.054-4.649 3.351-4.757 3.46h-.324zM5.406 1.19c-1.082 0-2.163.433-3.028 1.406-.756.864-1.189 2.054-1.189 3.35 0 2.596 2.379 5.19 4.433 6.92C7.459 14.378 9.297 15.568 9.946 16c.649-.432 2.486-1.622 4.324-3.135 2.054-1.73 4.54-4.433 4.54-6.92 0-1.296-.54-2.594-1.405-3.459-.756-.756-1.837-1.189-2.919-1.189-1.837 0-3.35 1.298-4 3.135 0 .109-.216.325-.432.325-.324 0-.54-.216-.649-.433-.54-1.946-2.162-3.135-4-3.135z" fill="#fff"/></svg>