<svg width="42" height="42" fill="none" xmlns="http://www.w3.org/2000/svg"><rect width="42" height="42" rx="4" fill="#CCE3F8"/><g clip-path="url(#clip0)"><path d="M20.802 31.88l-4.654-3.386s-.423-.423.06-.423h2.78V13.929h-2.78c-.483 0-.06-.424-.06-.424l4.654-3.384s.241-.242.483 0c.302.362 4.593 3.505 4.593 3.505s.424.423-.12.423h-2.66v13.962h2.66c.544 0 .12.423.12.423s-4.29 3.143-4.593 3.506c-.242.18-.483-.06-.483-.06z" fill="#9CBCDA"/></g><defs><clipPath id="clip0"><path fill="#fff" transform="rotate(90 8 18)" d="M0 0h22v10.093H0z"/></clipPath></defs></svg>