<svg width="16" height="16" fill="none" xmlns="http://www.w3.org/2000/svg"><path d="M8.1 12.1C5.8 12.1 4 10.3 4 8s1.8-4 4.1-4 4.1 1.8 4.1 4.1c-.1 2.2-1.9 4-4.1 4zm0-6.4c-1.4 0-2.4 1-2.4 2.3 0 1.3 1.1 2.4 2.4 2.4 1.3 0 2.4-1.1 2.4-2.4 0-1.3-1.1-2.3-2.4-2.3z" fill="url(#paint0_linear)"/><path d="M12.102 5a1 1 0 100-2 1 1 0 000 2z" fill="url(#paint1_linear)"/><path d="M11.4 16H4.6C2.1 16 0 13.9 0 11.4V4.6C0 2.1 2.1 0 4.6 0h6.8C13.9 0 16 2.1 16 4.6v6.8c0 2.5-2.1 4.6-4.6 4.6zM4.6 1.7C3 1.7 1.7 3 1.7 4.6v6.8c0 1.6 1.3 2.9 2.9 2.9h6.8c1.6 0 2.9-1.3 2.9-2.9V4.6c0-1.6-1.3-2.9-2.9-2.9H4.6z" fill="url(#paint2_linear)"/><defs><linearGradient id="paint0_linear" x1="1.156" y1="14.946" x2="13.743" y2="2.359" gradientUnits="userSpaceOnUse"><stop stop-color="#FEE411"/><stop offset=".052" stop-color="#FEDB16"/><stop offset=".138" stop-color="#FEC125"/><stop offset=".248" stop-color="#FE983D"/><stop offset=".376" stop-color="#FE5F5E"/><stop offset=".5" stop-color="#FE2181"/><stop offset="1" stop-color="#9000DC"/></linearGradient><linearGradient id="paint1_linear" x1="1.135" y1="14.924" x2="13.722" y2="2.337" gradientUnits="userSpaceOnUse"><stop stop-color="#FEE411"/><stop offset=".052" stop-color="#FEDB16"/><stop offset=".138" stop-color="#FEC125"/><stop offset=".248" stop-color="#FE983D"/><stop offset=".376" stop-color="#FE5F5E"/><stop offset=".5" stop-color="#FE2181"/><stop offset="1" stop-color="#9000DC"/></linearGradient><linearGradient id="paint2_linear" x1="1.105" y1="14.895" x2="13.692" y2="2.308" gradientUnits="userSpaceOnUse"><stop stop-color="#FEE411"/><stop offset=".052" stop-color="#FEDB16"/><stop offset=".138" stop-color="#FEC125"/><stop offset=".248" stop-color="#FE983D"/><stop offset=".376" stop-color="#FE5F5E"/><stop offset=".5" stop-color="#FE2181"/><stop offset="1" stop-color="#9000DC"/></linearGradient></defs></svg>