<svg width="16" height="15" fill="none" xmlns="http://www.w3.org/2000/svg"><g clip-path="url(#clip0)"><path d="M1.875 13.625C2.75 14.5 4 15 5.125 15c1.25 0 2.375-.5 3.25-1.375l1.25-1.25a.604.604 0 000-.875c-.125-.25-.625-.25-.875 0L7.5 12.75c-1.375 1.375-3.5 1.375-4.75 0-1.375-1.375-1.375-3.5 0-4.75L4 6.75c.25-.25.25-.75 0-1a.604.604 0 00-.875 0L1.875 7C0 8.875 0 11.875 1.875 13.625zM6.25 3.5c.25.25.75.25 1 0L8.5 2.25c1.375-1.375 3.5-1.375 4.75 0 1.375 1.375 1.375 3.5 0 4.75L12 8.25c-.25.25-.25.75 0 1 .125.125.25.125.5.125.125 0 .375 0 .5-.125L14.25 8c1.75-1.75 1.75-4.75 0-6.625-1.75-1.75-4.75-1.75-6.625 0l-1.25 1.25C6 2.875 6 3.25 6.25 3.5zM6 9.5c.125.125.25.125.5.125.125 0 .375 0 .5-.125l3.25-3.25a.604.604 0 000-.875.604.604 0 00-.875 0L6 8.625A.604.604 0 006 9.5z" fill="#112279"/></g><defs><clipPath id="clip0"><path fill="#fff" d="M0 0h16v15H0z"/></clipPath></defs></svg>