<svg width="14" height="11" fill="none" xmlns="http://www.w3.org/2000/svg"><g clip-path="url(#clip0)"><path d="M12.289 0H1.71C.778 0 0 .778 0 1.711v7.233c0 .934.778 1.712 1.711 1.712H12.29c.933 0 1.711-.778 1.711-1.712V1.711A1.728 1.728 0 0012.289 0zm.933 8.944c0 .545-.389.934-.933.934H1.71c-.544 0-.933-.39-.933-.934V1.711c0-.544.389-.933.933-.933h10.58c.544 0 .933.389.933.933v7.233zM8.867 5.211l3.422-3.033a.376.376 0 000-.545.376.376 0 00-.545 0L7 5.833l-.933-.855s-.078 0-.078-.078L2.256 1.556a.376.376 0 00-.545 0c-.155.233-.155.466 0 .622l3.5 3.11L1.79 8.557a.376.376 0 000 .544c.078.078.155.156.311.156.078 0 .156 0 .233-.078l3.5-3.267.934.856c.077-.078.155 0 .233 0 .078 0 .156 0 .233-.078l1.011-.856 3.5 3.345c.078.078.156.078.234.078.078 0 .233-.078.31-.156a.376.376 0 000-.544L8.868 5.21z" fill="#D9AE81"/></g><defs><clipPath id="clip0"><path fill="#fff" d="M0 0h14v10.656H0z"/></clipPath></defs></svg>