<svg width="11" height="14" fill="none" xmlns="http://www.w3.org/2000/svg"><g clip-path="url(#clip0)"><path d="M2.878.7h.078c.156.078.233.156.39.311.232.311.466.7.621.934.39.7.545 1.166.545 1.477 0 .311-.078.467-.311.623l-.7.388c-.467.234-.623.7-.7 1.09-.078.388 0 .855.233 1.166l1.633 2.878c.156.31.545.622.934.777.388.156.855.234 1.322 0l.7-.388c.233-.156.389-.156.7 0 .233.155.622.544 1.01 1.166.156.234.39.7.545 1.011a.846.846 0 01.078.39v.077l-.622.311c-1.245.545-2.489.467-3.5-.078-1.089-.544-1.944-1.555-2.644-2.722l-1.4-2.41C1.09 6.532.7 5.288.7 4.121c.078-1.166.545-2.255 1.634-3.11L2.878.7zm.467-.622c-.233-.078-.544-.156-.778 0l-.544.311C.7 1.4.078 2.722 0 4.045c-.078 1.4.388 2.8 1.166 4.044l1.4 2.411c.7 1.245 1.711 2.333 2.878 2.956 1.244.622 2.644.777 4.122.155l.545-.31c.233-.156.389-.39.389-.623 0-.234 0-.467-.078-.7-.156-.467-.39-.934-.622-1.245-.39-.7-.778-1.166-1.245-1.4-.466-.233-1.01-.233-1.4 0l-.7.39a1.08 1.08 0 01-.7 0 1.094 1.094 0 01-.544-.467L3.656 6.3a1.553 1.553 0 01-.155-.7c0-.233.155-.467.31-.544l.7-.39c.467-.233.7-.7.7-1.244s-.233-1.089-.622-1.789c-.155-.31-.388-.777-.777-1.088C3.734.31 3.5.155 3.345.078z" fill="#D9AE81"/></g><defs><clipPath id="clip0"><path fill="#fff" d="M0 0h10.578v14H0z"/></clipPath></defs></svg>