<svg width="12" height="14" fill="none" xmlns="http://www.w3.org/2000/svg"><path d="M10.111 1.711C9.022.622 7.467 0 5.911 0c-1.555 0-3.033.622-4.2 1.711C.622 2.878 0 4.356 0 5.911c0 3.189 3.033 5.833 4.667 7.311l.544.545c.233.155.467.233.7.233.233 0 .467-.078.7-.311.156-.078.389-.311.545-.467 1.633-1.4 4.666-4.122 4.666-7.31 0-1.556-.622-3.034-1.71-4.2zM6.69 12.6c-.233.233-.467.389-.622.544-.078.078-.156.078-.234 0-.155-.155-.389-.31-.622-.544C3.656 11.278.856 8.789.856 5.911.856 3.111 3.11.856 5.91.856s5.133 2.255 5.133 5.133c0 2.8-2.877 5.289-4.355 6.611z" fill="#D9AE81"/><path d="M5.911 3.111a2.59 2.59 0 00-2.567 2.567c0 1.4 1.167 2.644 2.645 2.644s2.567-1.166 2.567-2.644C8.556 4.2 7.389 3.11 5.91 3.11zm0 4.356a1.76 1.76 0 01-1.789-1.79 1.76 1.76 0 011.79-1.788A1.76 1.76 0 017.7 5.678a1.76 1.76 0 01-1.789 1.789z" fill="#D9AE81"/></svg>