<svg width="20" height="18" fill="none" xmlns="http://www.w3.org/2000/svg"><path d="M9.622 17.19c.108.107.216.107.324.107h.324c.108-.108 2.379-1.405 4.757-3.46 1.405-1.188 2.595-2.377 3.351-3.567C19.46 8.757 20 7.243 20 5.946c0-1.622-.649-3.243-1.73-4.324C17.297.54 16 0 14.595 0c-1.946 0-3.568 1.081-4.65 2.703C8.974 1.08 7.244 0 5.406 0 4 0 2.595.649 1.622 1.73.54 2.81 0 4.324 0 5.946c0 1.297.54 2.703 1.514 4.216.864 1.19 1.945 2.378 3.35 3.568 2.271 2.054 4.65 3.351 4.758 3.46z" fill="red"/></svg>