<svg width="18" height="18" fill="none" xmlns="http://www.w3.org/2000/svg"><path d="M17.438 17.944c-.113 0-.338-.113-.45-.113l-3.713-3.712-.113.112c-1.575 1.238-3.262 1.913-5.175 1.913-4.387 0-7.987-3.6-7.987-8.1C0 3.656 3.6.056 7.987.056c4.388 0 7.988 3.6 7.988 7.988 0 1.8-.563 3.6-1.8 5.062l-.113.113v.112l3.6 3.6a.544.544 0 010 .788c0 .225-.112.225-.224.225zM7.988 1.18a6.818 6.818 0 00-6.863 6.863 6.818 6.818 0 006.862 6.862 6.818 6.818 0 006.863-6.862c.113-3.825-3.037-6.863-6.862-6.863z" fill="#fff"/></svg>