<svg width="16" height="14" fill="none" xmlns="http://www.w3.org/2000/svg"><g clip-path="url(#clip0)" fill="#112279"><path d="M2.4 13.867a2.39 2.39 0 01-2.4-2.4v-5.2C0 5.067 1.067 4 2.4 4h1.2c.4 0 .667.267.667.533C4.267 4.8 4 5.2 3.6 5.2H2.4c-.667 0-1.2.533-1.2 1.2v5.067c0 .666.533 1.2 1.2 1.2h11.2c.667 0 1.2-.534 1.2-1.2v-5.2c0-.667-.533-1.2-1.2-1.2h-1.067c-.4 0-.666-.267-.666-.667s.266-.4.666-.4H13.6A2.39 2.39 0 0116 6.4v5.067a2.39 2.39 0 01-2.4 2.4H2.4z"/><path d="M8 8.267c-.4 0-.667-.267-.667-.667V1.867l-.8 1.333c0 .133-.267.133-.4.133-.134 0-.267 0-.4-.133-.267-.267-.267-.667-.134-.8L6.933.533C6.933.4 7.066.4 7.066.4c.4-.267.667-.4.933-.4.4 0 .8.133 1.067.533L10.399 2.4c.267.267.134.667-.133.933h-.4c-.133 0-.4-.133-.533-.266l-.667-1.2V7.6c0 .4-.267.667-.667.667z"/></g><defs><clipPath id="clip0"><path fill="#fff" d="M0 0h16v13.867H0z"/></clipPath></defs></svg>