<svg width="16" height="14" fill="none" xmlns="http://www.w3.org/2000/svg"><g clip-path="url(#clip0)"><path d="M15.8.4c-.2-.3-.5-.4-.9-.4-.2 0-.4 0-.6.1L.8 5.3c-.7.3-.8.7-.8.9 0 .2.1.6.9.9l2.8.8 1.5 4.3c.2.6.7 1 1.2 1 .3 0 .7-.1 1-.4l1.7-1.6 2.5 2c.3.2.6.3.9.3.6 0 1-.4 1.2-1.1l2.2-11c.2-.4.1-.8-.1-1zM4.6 7.7L10 4.9 6.7 8.5c-.1.1-.1.2-.1.2l-.7 2.6-1.3-3.6zm2.2 4.4c-.1 0-.1 0 0 0l.5-2.4 1.1.9-1.6 1.5zM15 1.3l-2.2 11c0 .1-.1.3-.3.3-.1 0-.2 0-.3-.1l-2.9-2.3-1.6-1.4 4.9-5.2c.2-.2.2-.4 0-.6-.1-.2-.4-.2-.6-.1L4 7l-2.9-.8L14.7 1c.1 0 .2-.1.2-.1h.1c.1.1.1.2 0 .4z" fill="#039BE5"/></g><defs><clipPath id="clip0"><path fill="#fff" d="M0 0h16v13.5H0z"/></clipPath></defs></svg>