<svg width="16" height="17" fill="none" xmlns="http://www.w3.org/2000/svg"><g clip-path="url(#clip0)" fill="#8E24AA"><path d="M15.4 9.8c.5-4.3-.2-7-1.6-8.2-2.2-2-9.5-2.3-12.2.2C.5 3 .1 4.8 0 7c0 2.2-.1 6.3 3.8 7.5v1.7s0 .7.4.8c.5.2.7-.2 2.3-2 2.6.2 4.7-.3 4.9-.4.5-.2 3.5-.6 4-4.8zm-8.6 3.9s-1.7 2.1-2.2 2.6c-.2.2-.4.2-.4-.2v-2.8c-3.2-.9-3-4.4-3-6.3 0-1.8.4-3.3 1.4-4.4C4.8.5 11.3 1 13 2.5c2 1.8 1.3 6.8 1.3 7-.4 3.4-2.9 3.7-3.3 3.8-.2.1-2 .6-4.2.4z"/><path d="M7.702 3.1c-.3 0-.3.4 0 .4 2.1 0 3.9 1.5 3.9 4.2-.1.3.4.3.4 0-.1-2.9-2-4.6-4.3-4.6z"/><path d="M10.5 7.2c0 .3.4.3.4 0 0-1.6-1-2.9-2.8-3.1-.3 0-.3.4 0 .4 1.5.2 2.4 1.3 2.4 2.7zM10 9c-.3-.2-.7 0-.8.2l-.4.4c-.1.2-.4.1-.4.1-2.1-.5-2.7-2.8-2.7-2.8s0-.3.2-.5l.4-.3c.1-.1.3-.5.1-.8-.6-1-.9-1.3-1.1-1.5-.2-.3-.5-.3-.8-.2-.6.4-1.2 1.1-1 1.8.4.7 1 3 3.2 4.8 1 .8 2.6 1.7 3.3 1.9.7.2 1.3-.5 1.7-1.1.2-.3.1-.6-.1-.8-.5-.4-1.1-.9-1.6-1.2z"/><path d="M8.298 5.7c.7 0 1 .4 1 1.1 0 .3.4.3.4 0 0-1-.5-1.5-1.4-1.5-.2 0-.2.4 0 .4z"/></g><defs><clipPath id="clip0"><path fill="#fff" d="M0 0h15.6v17H0z"/></clipPath></defs></svg>