<svg width="16" height="16" fill="none" xmlns="http://www.w3.org/2000/svg"><g clip-path="url(#clip0)"><path fill-rule="evenodd" clip-rule="evenodd" d="M1.1 12C.4 10.7 0 9.3 0 7.9 0 3.6 3.6 0 8 0c2.1 0 4.1.8 5.6 2.3 1.5 1.5 2.3 3.5 2.3 5.6 0 4.4-3.6 7.9-7.9 7.9-1.3 0-2.6-.3-3.8-1L0 16l1.1-4zm3.4 1.8c1 .6 2.2.9 3.5.9 3.7 0 6.8-3 6.8-6.8 0-1.8-.7-3.5-2-4.8-1.3-1.3-3-2-4.8-2-3.7 0-6.8 3-6.8 6.8 0 1.3.4 2.5 1 3.6l.2.3-.7 2.6 2.7-.7.1.1zm5.6-2.1c-.3 0-.5 0-.7-.1-.3-.1-.7-.2-1.1-.4-1.6-.7-2.8-2.1-3.4-3-.4-.3-.9-1.2-.9-2 0-.9.4-1.3.6-1.6.2-.2.4-.3.5-.3h.4c.1 0 .2 0 .4.3l.2.5c.2.4.4.9.4 1 .1.1.1.2 0 .3 0 .1-.2.3-.5.7-.1.1-.2.2-.1.5.2.2.6.9 1.2 1.4.7.6 1.2.8 1.5 1h.1c.1.1.2.1.3.1.1 0 .2 0 .3-.2.1-.1.5-.6.6-.8.1-.1.1-.1.2-.1h.2c.2.1 1.1.5 1.4.7l.1.1c.1.1.2.1.2.1 0 .1 0 .4-.1.9-.2.4-.9.8-1.3.9h-.5z" fill="#4CAF50"/></g><defs><clipPath id="clip0"><path fill="#fff" d="M0 0h15.9v16H0z"/></clipPath></defs></svg>