<svg width="42" height="42" fill="none" xmlns="http://www.w3.org/2000/svg"><rect width="42" height="42" rx="4" fill="#CAECE2"/><g clip-path="url(#clip0)"><path d="M31.877 21.198l-3.384 4.654s-.423.423-.423-.06V23.01H13.927v2.78c0 .484-.423.06-.423.06l-3.385-4.653s-.242-.242 0-.484c.363-.302 3.506-4.593 3.506-4.593s.423-.423.423.12v2.66h13.961v-2.66c0-.543.423-.12.423-.12s3.143 4.291 3.506 4.593c.181.242-.06.484-.06.484z" fill="#67D3B2"/></g><defs><clipPath id="clip0"><path fill="#fff" transform="translate(10 16)" d="M0 0h22v10.093H0z"/></clipPath></defs></svg>